<svg id="Film_Clapper" viewBox="0 0 64 64" xmlns="http://www.w3.org/2000/svg" data-name="Film Clapper"><path d="m49 61h-33c-5.51 0-10-4.49-10-10v-25c0-1.1.9-2 2-2h49c1.1 0 2 .9 2 2v25c0 5.51-4.49 10-10 10zm-39-33v23c0 3.31 2.69 6 6 6h33c3.31 0 6-2.69 6-6v-23z"/><path d="m58.96 15.2-1.24-5.86c-.44-2.09-1.67-3.89-3.46-5.05-1.78-1.16-3.91-1.55-5.99-1.11l-27.22 5.81s0 0 0 0l-9.72 2.08c-4.27.91-7.02 5.13-6.15 9.41l.86 5.81c.08.55.38 1.03.84 1.35.34.23.74.36 1.14.36.14 0 .28-.01.42-.04l15.48-3.28s.02 0 .03 0c.14 0 .28-.01.42-.04.15-.03.29-.08.42-.14l16.84-3.57c.08 0 .16 0 .24-.03.09-.02.17-.05.25-.08l15.31-3.25c1.08-.23 1.77-1.29 1.54-2.37zm-33.5 5.05-1.64-7.77 13.59-2.9 1.65 7.79zm-16.35-.41s-.01-.08-.02-.12c-.46-2.16.91-4.28 3.06-4.74l7.77-1.66 1.64 7.76-11.88 2.52-.56-3.76zm33.87-3.3-1.65-7.79 7.77-1.66c1.03-.22 2.09-.02 2.97.55.89.58 1.51 1.48 1.73 2.53l.83 3.91-11.65 2.47z"/><path d="m28.8 51c-.92 0-1.84-.26-2.64-.78-1.35-.87-2.15-2.33-2.15-3.91v-7.62c0-1.58.81-3.04 2.15-3.91 1.4-.9 3.15-1.03 4.67-.34l8.4 3.81c1.71.78 2.78 2.41 2.78 4.25s-1.06 3.47-2.78 4.25l-8.4 3.81c-.65.29-1.34.44-2.03.44zm0-13c-.23 0-.4.09-.48.14-.15.09-.32.27-.32.55v7.62c0 .28.17.45.32.55.12.08.45.24.85.06l8.4-3.81c.36-.16.43-.42.43-.61s-.07-.44-.43-.61l-8.4-3.81c-.13-.06-.26-.08-.37-.08z"/></svg>