<?xml version="1.0" encoding="iso-8859-1"?>
<!-- Generator: Adobe Illustrator 19.0.0, SVG Export Plug-In . SVG Version: 6.00 Build 0)  -->
<svg version="1.1" id="Capa_1" xmlns="http://www.w3.org/2000/svg" xmlns:xlink="http://www.w3.org/1999/xlink" x="0px" y="0px"
	 viewBox="0 0 384 384" style="enable-background:new 0 0 384 384;" xml:space="preserve">
<path style="fill:#FFA733;" d="M24,296h96V88H24c-8.837,0-16,7.163-16,16v176C8,288.837,15.163,296,24,296z"/>
<path style="fill:#FFC477;" d="M280,376V8L120,88v208L280,376z"/>
<path style="fill:#FFA733;" d="M320,376c4.418,0,8-3.582,8-8V16c0-4.418-3.582-8-8-8h-40v368H320z"/>
<g>
	<path style="fill:#2D2D30;" d="M320,0h-40c-0.104,0-0.192,0.056-0.288,0.056c-0.843,0.032-1.676,0.203-2.464,0.504
		c-0.176,0.064-0.36,0.104-0.528,0.176s-0.2,0.056-0.296,0.104L118.112,80H24C10.745,80,0,90.745,0,104v176
		c0,13.255,10.745,24,24,24h94.112l158.312,79.2c0.072,0,0.152,0,0.216,0.048c1.051,0.494,2.198,0.751,3.36,0.752h40
		c8.837,0,16-7.163,16-16V16C336,7.163,328.837,0,320,0L320,0z M16,280V104c0-4.418,3.582-8,8-8h88v192H24
		C19.582,288,16,284.418,16,280z M128,92.944l144-72v342.112l-144-72V92.944z M288,368V16h32v352H288z"/>
	<path style="fill:#2D2D30;" d="M368,88h16v208h-16V88z"/>
</g>
<g>
</g>
<g>
</g>
<g>
</g>
<g>
</g>
<g>
</g>
<g>
</g>
<g>
</g>
<g>
</g>
<g>
</g>
<g>
</g>
<g>
</g>
<g>
</g>
<g>
</g>
<g>
</g>
<g>
</g>
</svg>
