<svg id="Layer_1" viewBox="0 0 512 512" xmlns="http://www.w3.org/2000/svg" data-name="Layer 1"><g fill-rule="evenodd"><path d="m327.4 45.307a5.938 5.938 0 0 0 4.276 1.911 6.06 6.06 0 0 0 4.361-1.756l1.482-1.48a63.26 63.26 0 0 1 97.592 79.483 6 6 0 0 0 1.876 8.4 97.41 97.41 0 0 1 -50.778 180.582h-260.409a97.48 97.48 0 1 1 0-194.96h26.722a6.008 6.008 0 0 0 6-6 97.355 97.355 0 0 1 168.878-66.18z" fill="#ffc107"/><path d="m30.312 214.967a95.588 95.588 0 0 1 95.483-95.48h26.722a8.008 8.008 0 0 0 8-8 95.356 95.356 0 0 1 165.416-64.82 7.991 7.991 0 0 0 5.718 2.55 8.079 8.079 0 0 0 5.8-2.34l1.481-1.48a61.26 61.26 0 0 1 94.507 76.97 8 8 0 0 0 2.5 11.2 95.41 95.41 0 0 1 -49.73 176.879h-260.409a95.587 95.587 0 0 1 -95.483-95.48zm434.06 177.781a17.315 17.315 0 1 1 -17.309 17.311 17.331 17.331 0 0 1 17.309-17.311zm-191.056 85.94a17.315 17.315 0 1 1 -17.316-17.32 17.334 17.334 0 0 1 17.314 17.32zm-225.69-51.31a17.315 17.315 0 1 1 17.319-17.319 17.336 17.336 0 0 1 -17.319 17.319zm338.582-100.931a111.351 111.351 0 0 0 96.762-166.68 112.79 112.79 0 0 0 -32.138-35.5 77.657 77.657 0 0 0 -13.95-90.181 77.484 77.484 0 0 0 -104.919-4.02 111.338 111.338 0 0 0 -187.163 73.421h-19a111.48 111.48 0 1 0 0 222.96h10.356v75.612h-56.189a33.319 33.319 0 1 0 0 16h64.181a8 8 0 0 0 8-8v-83.612h41.564v76.021a8 8 0 0 0 16 0v-76.021h38.288v119.9a33.318 33.318 0 1 0 16 0v-119.9h38.29v76.021a8 8 0 1 0 16 0v-76.021h41.56v83.612a8 8 0 0 0 8 8h64.181a33.311 33.311 0 1 0 0-16h-56.18v-75.612z"/></g></svg>