<?xml version="1.0" encoding="UTF-8" standalone="no"?>
<!-- Created with Inkscape (http://www.inkscape.org/) -->

<svg
   version="1.1"
   id="svg3711"
   xml:space="preserve"
   width="682.66669"
   height="682.66669"
   viewBox="0 0 682.66669 682.66669"
   xmlns="http://www.w3.org/2000/svg"
   xmlns:svg="http://www.w3.org/2000/svg"><defs
     id="defs3715"><clipPath
       clipPathUnits="userSpaceOnUse"
       id="clipPath3725"><path
         d="M 0,512 H 512 V 0 H 0 Z"
         id="path3723" /></clipPath></defs><g
     id="g3717"
     transform="matrix(1.3333333,0,0,-1.3333333,0,682.66667)"><g
       id="g3719"><g
         id="g3721"
         clip-path="url(#clipPath3725)"><g
           id="g3727"
           transform="translate(371.624,23.0449)"><path
             d="m 0,0 h -311.773 c -22.457,0 -40.663,18.205 -40.663,40.662 v 195.387 c 0,22.457 18.206,40.662 40.663,40.662 H 10e-4 c 22.457,0 40.661,-18.205 40.661,-40.662 V 40.662 C 40.662,18.205 22.457,0 0,0"
             style="fill:#8a8aa0;fill-opacity:1;fill-rule:nonzero;stroke:none"
             id="path3729" /></g><g
           id="g3731"
           transform="translate(371.624,23.0449)"><path
             d="m 0,0 h -311.773 c -22.457,0 -40.663,18.205 -40.663,40.662 v 195.387 c 0,22.457 18.206,40.662 40.663,40.662 H 10e-4 c 22.457,0 40.661,-18.205 40.661,-40.662 V 40.662 C 40.662,18.205 22.457,0 0,0 Z"
             style="fill:none;stroke:#000000;stroke-width:20;stroke-linecap:round;stroke-linejoin:round;stroke-miterlimit:10;stroke-dasharray:none;stroke-opacity:1"
             id="path3733" /></g><g
           id="g3735"
           transform="translate(184.5703,249.4355)"><path
             d="M 0,0 H 227.716 V -176.07 H -165.382 V 0 h 61.427"
             style="fill:#ffffff;fill-opacity:1;fill-rule:nonzero;stroke:#000000;stroke-width:20;stroke-linecap:round;stroke-linejoin:round;stroke-miterlimit:10;stroke-dasharray:none;stroke-opacity:1"
             id="path3737" /></g><g
           id="g3739"
           transform="translate(131.252,249.4355)"><path
             d="M 0,0 Z"
             style="fill:#ffffff;fill-opacity:1;fill-rule:nonzero;stroke:none"
             id="path3741" /></g><g
           id="g3743"
           transform="translate(131.252,249.4355)"><path
             d="M 0,0 V 0"
             style="fill:none;stroke:#000000;stroke-width:20;stroke-linecap:round;stroke-linejoin:round;stroke-miterlimit:10;stroke-dasharray:none;stroke-opacity:1"
             id="path3745" /></g><g
           id="g3747"
           transform="translate(476.4863,63.6357)"><path
             d="M 0,0 -64.2,32.549 V 162.981 L 0,195.529 c 11.688,5.926 25.514,-2.568 25.514,-15.675 V 15.676 C 25.514,2.569 11.688,-5.926 0,0"
             style="fill:#ffe787;fill-opacity:1;fill-rule:nonzero;stroke:none"
             id="path3749" /></g><g
           id="g3751"
           transform="translate(476.4863,63.6357)"><path
             d="M 0,0 -64.2,32.549 V 162.981 L 0,195.529 c 11.688,5.926 25.514,-2.568 25.514,-15.675 V 15.676 C 25.514,2.569 11.688,-5.926 0,0 Z"
             style="fill:none;stroke:#000000;stroke-width:20;stroke-linecap:round;stroke-linejoin:round;stroke-miterlimit:10;stroke-dasharray:none;stroke-opacity:1"
             id="path3753" /></g><g
           id="g3755"
           transform="translate(388.2998,394.3555)"><path
             d="m 0,0 c 0,-52.246 -42.343,-94.6 -94.575,-94.6 -52.233,0 -94.575,42.354 -94.575,94.6 0,52.246 42.342,94.6 94.575,94.6 C -42.343,94.6 0,52.246 0,0"
             style="fill:#baf0ff;fill-opacity:1;fill-rule:nonzero;stroke:none"
             id="path3757" /></g><g
           id="g3759"
           transform="translate(388.2998,394.3555)"><path
             d="m 0,0 c 0,-52.246 -42.343,-94.6 -94.575,-94.6 -52.233,0 -94.575,42.354 -94.575,94.6 0,52.246 42.342,94.6 94.575,94.6 C -42.343,94.6 0,52.246 0,0 Z"
             style="fill:none;stroke:#000000;stroke-width:20;stroke-linecap:round;stroke-linejoin:round;stroke-miterlimit:10;stroke-dasharray:none;stroke-opacity:1"
             id="path3761" /></g><g
           id="g3763"
           transform="translate(293.7246,345.2354)"><path
             d="m 0,0 c -27.077,0 -49.107,22.035 -49.107,49.12 0,27.084 22.03,49.12 49.107,49.12 27.077,0 49.107,-22.036 49.107,-49.12 C 49.107,22.035 27.077,0 0,0"
             style="fill:#ffffff;fill-opacity:1;fill-rule:nonzero;stroke:none"
             id="path3765" /></g><g
           id="g3767"
           transform="translate(293.7246,345.2354)"><path
             d="m 0,0 c -27.077,0 -49.107,22.035 -49.107,49.12 0,27.084 22.03,49.12 49.107,49.12 27.077,0 49.107,-22.036 49.107,-49.12 C 49.107,22.035 27.077,0 0,0 Z"
             style="fill:none;stroke:#000000;stroke-width:20;stroke-linecap:round;stroke-linejoin:round;stroke-miterlimit:10;stroke-dasharray:none;stroke-opacity:1"
             id="path3769" /></g><g
           id="g3771"
           transform="translate(199.1494,394.3555)"><path
             d="m 0,0 c 0,-52.246 -42.343,-94.6 -94.574,-94.6 -52.233,0 -94.575,42.354 -94.575,94.6 0,52.246 42.342,94.6 94.575,94.6 C -42.343,94.6 0,52.246 0,0"
             style="fill:#baf0ff;fill-opacity:1;fill-rule:nonzero;stroke:none"
             id="path3773" /></g><g
           id="g3775"
           transform="translate(199.1494,394.3555)"><path
             d="m 0,0 c 0,-52.246 -42.343,-94.6 -94.574,-94.6 -52.233,0 -94.575,42.354 -94.575,94.6 0,52.246 42.342,94.6 94.575,94.6 C -42.343,94.6 0,52.246 0,0 Z"
             style="fill:none;stroke:#000000;stroke-width:20;stroke-linecap:round;stroke-linejoin:round;stroke-miterlimit:10;stroke-dasharray:none;stroke-opacity:1"
             id="path3777" /></g><g
           id="g3779"
           transform="translate(104.5752,345.2354)"><path
             d="m 0,0 c -27.078,0 -49.107,22.035 -49.107,49.12 0,27.084 22.029,49.12 49.107,49.12 27.077,0 49.107,-22.036 49.107,-49.12 C 49.107,22.035 27.077,0 0,0"
             style="fill:#ffffff;fill-opacity:1;fill-rule:nonzero;stroke:none"
             id="path3781" /></g><g
           id="g3783"
           transform="translate(104.5752,345.2354)"><path
             d="m 0,0 c -27.078,0 -49.107,22.035 -49.107,49.12 0,27.084 22.029,49.12 49.107,49.12 27.077,0 49.107,-22.036 49.107,-49.12 C 49.107,22.035 27.077,0 0,0 Z"
             style="fill:none;stroke:#000000;stroke-width:20;stroke-linecap:round;stroke-linejoin:round;stroke-miterlimit:10;stroke-dasharray:none;stroke-opacity:1"
             id="path3785" /></g><g
           id="g3787"
           transform="translate(250.2793,149.2402)"><path
             d="m 0,0 -54.348,-32.951 c -9.474,-5.743 -21.584,1.079 -21.584,12.161 v 65.901 c 0,11.081 12.11,17.905 21.584,12.16 L 0,24.321 C 9.13,18.786 9.13,5.535 0,0"
             style="fill:#f4858a;fill-opacity:1;fill-rule:nonzero;stroke:none"
             id="path3789" /></g><g
           id="g3791"
           transform="translate(250.2793,149.2402)"><path
             d="m 0,0 -54.348,-32.951 c -9.474,-5.743 -21.584,1.079 -21.584,12.161 v 65.901 c 0,11.081 12.11,17.905 21.584,12.16 L 0,24.321 C 9.13,18.786 9.13,5.535 0,0 Z"
             style="fill:none;stroke:#000000;stroke-width:20;stroke-linecap:round;stroke-linejoin:round;stroke-miterlimit:10;stroke-dasharray:none;stroke-opacity:1"
             id="path3793" /></g></g></g></g></svg>
