<svg id="Layer_3" height="512" viewBox="0 0 64 64" width="512" xmlns="http://www.w3.org/2000/svg" data-name="Layer 3"><path d="m37.657 22h22.343a2 2 0 0 1 2 2v32a2 2 0 0 1 -2 2h-56a2 2 0 0 1 -2-2v-32a2 2 0 0 1 2-2h22.344" fill="#f0ae42"/><path d="m2 56a2 2 0 0 0 2 2h46.749v-26h-48.749z" fill="#f9d266"/><g fill="#474747"><path d="m6 26h4v4h-4z"/><path d="m6 34h4v4h-4z"/><path d="m6 42h4v4h-4z"/><path d="m6 50h4v4h-4z"/><path d="m54 26h4v4h-4z"/><path d="m54 34h4v4h-4z"/><path d="m54 42h4v4h-4z"/><path d="m54 50h4v4h-4z"/><path d="m30 51v-22h-4v9h-6v-9h-4v22h4v-9h6v9z"/><path d="m34 29v22h8a6 6 0 0 0 6-6v-10a6 6 0 0 0 -6-6z"/></g><path d="m38 33h3a3 3 0 0 1 3 3v8a3 3 0 0 1 -3 3h-3a0 0 0 0 1 0 0v-14a0 0 0 0 1 0 0z" fill="#f9d266"/><circle cx="32" cy="15" fill="#b52f28" r="9"/><path d="m23 15a9 9 0 0 0 15.332 6.393v-9.169h-14.891a8.974 8.974 0 0 0 -.441 2.776z" fill="#d23f34"/><path d="m29 10v10l9-5z" fill="#e2e7f6"/></svg>